<svg xmlns="http://www.w3.org/2000/svg" viewBox="0 0 512 512">
  <rect width="512" height="512" rx="112" fill="#f8faf7"/>
  <path d="M256 418c55 0 101-41 108-95H148c7 54 53 95 108 95Z" fill="#d9874a"/>
  <path d="M137 284h238l-15 44H152l-15-44Z" fill="#b8673f"/>
  <path d="M258 286c-12-74 13-139 75-194 8 73-15 137-75 194Z" fill="#2e7d58"/>
  <path d="M246 286c-66-15-111-56-132-124 68 9 113 49 132 124Z" fill="#4f9c6e"/>
  <path d="M254 286c-36-51-40-107-12-168 43 48 47 105 12 168Z" fill="#75b66f"/>
  <path d="M256 318c-10 0-18-8-18-18V174c0-10 8-18 18-18s18 8 18 18v126c0 10-8 18-18 18Z" fill="#27664a"/>
</svg>
